<svg width="139" height="38" viewBox="0 0 139 38" fill="none" xmlns="http://www.w3.org/2000/svg">
<path d="M78.9219 17.3681H77.1971L74.0572 20.5957V14.1406H72.7305V25.1495H74.0572V21.5241L77.6394 25.1053L77.6836 25.1495H79.1872H79.2757V25.0169L75.2513 21.0378L78.9219 17.3681Z" fill="#333333"/>
<path d="M70.3881 23.2637C69.9017 23.75 69.1941 24.0153 68.398 24.0153C67.0271 24.0153 65.6561 23.1752 65.6561 21.2299C65.6561 19.594 66.8059 18.4445 68.398 18.4445C69.1056 18.4445 69.769 18.7098 70.2997 19.1961L70.3439 19.2403L71.1842 18.3561L71.1399 18.3119C70.3439 17.5602 69.4152 17.2065 68.3538 17.2065C65.9215 17.2065 64.2852 18.8424 64.2852 21.2299C64.2852 24.0153 66.3195 25.2532 68.3538 25.2532H68.398C69.4594 25.2532 70.4766 24.8553 71.1842 24.1037L71.2284 24.0595L70.3439 23.1752L70.3881 23.2637Z" fill="#333333"/>
<path d="M61.3661 21.5403C61.3661 22.9551 60.3931 24.0162 59.0222 24.0604C57.5628 24.0604 56.6783 23.1761 56.6783 21.6729V17.3843H55.3516V21.6729C55.3516 23.8835 56.6783 25.2983 58.7568 25.2983H58.8011C59.8182 25.2983 60.7469 24.812 61.3661 24.0604L61.4103 23.9719L61.4545 25.1657H62.6928V17.3843H61.3661V21.5403Z" fill="#333333"/>
<path d="M48.2627 14.0962H44.2383V25.1493H48.2627C52.1102 25.1493 53.7908 22.3197 53.7908 19.5343C53.7908 16.9258 52.066 14.0962 48.2627 14.0962ZM52.4198 19.4901C52.4198 21.6123 51.1373 23.7345 48.3069 23.7345H45.6535V15.4668H48.2627C51.0931 15.4668 52.4198 17.5448 52.4198 19.4901Z" fill="#333333"/>
<path d="M121.283 20.3293H124.688V22.8936C123.848 23.601 122.831 23.9989 121.725 23.9989C118.718 23.9989 117.347 21.8325 117.347 19.7103C117.347 17.5439 118.718 15.2006 121.681 15.2006C122.875 15.2006 123.981 15.6427 124.865 16.4386L124.91 16.4828L125.706 15.5543L125.661 15.5101C124.6 14.449 123.185 13.9185 121.637 13.9185C119.956 13.9185 118.541 14.449 117.524 15.5101C116.463 16.5712 115.888 18.0744 115.932 19.7545C115.932 22.363 117.436 25.3695 121.681 25.3695C121.725 25.3695 121.725 25.3695 121.77 25.3695C123.362 25.3695 124.865 24.7063 125.927 23.5126V19.1355H121.239V20.3293H121.283Z" fill="#333333"/>
<path d="M84.5752 14.0962H80.5508V25.1493H84.5752C88.4227 25.1493 90.1033 22.3197 90.1033 19.5343C90.1033 16.9258 88.3785 14.0962 84.5752 14.0962ZM88.7323 19.4901C88.7323 21.6123 87.4498 23.7345 84.6194 23.7345H82.0102V15.4668H84.6194C87.4056 15.4668 88.7323 17.5448 88.7323 19.4901Z" fill="#333333"/>
<path d="M131.376 17.2065C129.032 17.2065 127.352 18.9308 127.352 21.2741C127.352 23.6174 129.032 25.2974 131.376 25.2974C133.72 25.2974 135.445 23.6174 135.445 21.2741C135.445 18.8866 133.764 17.2065 131.376 17.2065ZM134.118 21.2741C134.118 22.91 132.968 24.0595 131.376 24.0595C129.828 24.0595 128.678 22.91 128.678 21.2741C128.678 19.594 129.784 18.4003 131.42 18.4003C132.968 18.4445 134.118 19.6382 134.118 21.2741Z" fill="#333333"/>
<path d="M97.6786 21.5403C97.6786 22.9551 96.7056 24.0162 95.3347 24.0604C93.8753 24.0604 92.9908 23.1761 92.9908 21.6729V17.3843H91.6641V21.6729C91.6641 23.8835 92.9908 25.2983 95.0251 25.2983H95.0693C96.0865 25.2983 97.0152 24.812 97.6344 24.0604L97.6786 23.9719L97.7228 25.1657H98.9611V17.3843H97.6344V21.5403H97.6786Z" fill="#333333"/>
<path d="M106.701 23.2637C106.214 23.75 105.507 24.0153 104.711 24.0153C103.34 24.0153 101.969 23.1752 101.969 21.2299C101.969 19.594 103.118 18.4445 104.711 18.4445C105.418 18.4445 106.081 18.7098 106.612 19.1961L106.656 19.2403L107.497 18.3561L107.452 18.3119C106.656 17.5602 105.728 17.2065 104.666 17.2065C102.234 17.2065 100.598 18.8424 100.598 21.2299C100.598 24.0153 102.632 25.2532 104.666 25.2532H104.711C105.772 25.2532 106.789 24.8553 107.497 24.1037L107.541 24.0595L106.656 23.1752L106.701 23.2637Z" fill="#333333"/>
<path d="M115.23 17.3681H113.506L110.366 20.5957V14.1406H109.039V25.1495H110.366V21.5241L113.948 25.1053L113.992 25.1495H115.496H115.584V25.0169L111.56 21.0378L115.23 17.3681Z" fill="#333333"/>
<path fill-rule="evenodd" clip-rule="evenodd" d="M19.0051 38C29.5013 38 38.0102 29.4934 38.0102 19C38.0102 8.50659 29.5013 0 19.0051 0C8.50887 0 0 8.50659 0 19C0 29.4934 8.50887 38 19.0051 38Z" fill="#DE5833"/>
<path fill-rule="evenodd" clip-rule="evenodd" d="M21.6772 33.1758C21.6772 33.0274 21.7136 32.9935 21.2417 32.053C19.9873 29.5418 18.7267 26.0015 19.3 23.7183C19.4045 23.3035 18.1185 8.35684 17.2094 7.87551C16.199 7.33718 14.9558 6.48321 13.8186 6.29321C13.2417 6.20092 12.4852 6.24463 11.8938 6.32425C11.7887 6.33841 11.7844 6.52727 11.8848 6.56129C12.2731 6.69279 12.7445 6.92111 13.0223 7.26632C13.0749 7.33166 13.0043 7.43443 12.9205 7.43754C12.6586 7.44724 12.1835 7.557 11.5567 8.08927C11.4842 8.15083 11.5444 8.26514 11.6377 8.24669C12.9848 7.98024 14.3606 8.11152 15.1714 8.84827C15.224 8.89608 15.1965 8.98186 15.1279 9.0005C8.09184 10.9121 9.48469 17.031 11.3578 24.5401C12.8662 30.5871 13.5241 32.9292 13.7827 33.8082C13.845 34.02 13.9976 34.192 14.2059 34.265C16.7153 35.1451 21.6772 35.137 21.6772 33.5469V33.1758Z" fill="#DDDDDD"/>
<path fill-rule="evenodd" clip-rule="evenodd" d="M36.4508 19C36.4508 28.6326 28.6399 36.4414 19.0047 36.4414C9.36947 36.4414 1.55859 28.6326 1.55859 19C1.55859 9.36738 9.36947 1.55859 19.0047 1.55859C28.6399 1.55859 36.4508 9.36738 36.4508 19ZM14.9332 34.4332C14.4511 32.9443 13.1038 28.629 11.773 23.1756C11.7287 22.9939 11.6844 22.813 11.6403 22.6331L11.6392 22.6286C10.0285 16.051 8.71282 10.6786 15.9234 8.99086C15.9893 8.97543 16.0216 8.89664 15.9779 8.84488C15.1506 7.86368 13.6008 7.54207 11.6411 8.21797C11.5607 8.24569 11.4909 8.16466 11.5408 8.09586C11.9251 7.56632 12.6761 7.15916 13.0468 6.98067C13.1235 6.94377 13.1188 6.83161 13.0376 6.8062C12.7951 6.73031 12.3822 6.61417 11.9178 6.53923C11.8079 6.5215 11.798 6.33323 11.9083 6.31839C14.6865 5.94471 17.5877 6.77858 19.0435 8.61196C19.0572 8.62923 19.0771 8.6413 19.0986 8.64592C24.4298 9.7905 24.8115 18.2157 24.1974 18.5994C24.0763 18.6751 23.6883 18.6317 23.1764 18.5744C21.1021 18.3424 16.9944 17.8829 20.3846 24.1994C20.4181 24.2618 20.3738 24.3444 20.3038 24.3552C18.3986 24.6514 20.825 30.5998 22.6237 34.5451C29.6955 32.9061 34.966 26.5684 34.966 19C34.966 10.1872 27.8199 3.04297 19.0047 3.04297C10.1895 3.04297 3.04337 10.1872 3.04337 19C3.04337 26.4061 8.09018 32.6337 14.9332 34.4332Z" fill="white"/>
<path d="M25.0278 26.9259C24.6219 26.7379 23.0614 27.8567 22.0257 28.7156C21.8092 28.4094 21.4011 28.1868 20.4805 28.3469C19.6747 28.487 19.2299 28.6812 19.0314 29.016C17.7596 28.534 15.6199 27.79 15.103 28.5085C14.538 29.2939 15.2443 33.0093 15.9947 33.4917C16.3865 33.7436 18.2606 32.5392 19.2393 31.7088C19.3972 31.9312 19.6514 32.0585 20.174 32.0464C20.9644 32.028 22.2463 31.8441 22.4453 31.4762C22.4574 31.4538 22.4678 31.4274 22.4766 31.3973C23.4826 31.7732 25.253 32.1709 25.6485 32.1115C26.6792 31.9568 25.5049 27.147 25.0278 26.9259Z" fill="#3CA82B"/>
<path d="M22.1223 28.8256C22.165 28.9017 22.1993 28.9819 22.2284 29.0635C22.3718 29.4645 22.6055 30.74 22.4288 31.0551C22.2521 31.3701 21.1046 31.5223 20.3967 31.5345C19.6887 31.5467 19.5294 31.2879 19.386 30.8869C19.2713 30.5662 19.2148 29.812 19.2161 29.3802C19.1871 28.7397 19.4212 28.5146 20.5031 28.3395C21.3038 28.21 21.7271 28.3607 21.9715 28.6185C23.1082 27.7703 25.0048 26.5734 25.1898 26.7921C26.1121 27.8829 26.2287 30.4795 26.029 31.5242C25.9637 31.8657 22.9095 31.1858 22.9095 30.8175C22.9095 29.2881 22.5126 28.8685 22.1223 28.8256Z" fill="#4CBA3C"/>
<path d="M15.432 28.348C15.6821 27.9522 17.7106 28.4444 18.8242 28.9398C18.8242 28.9398 18.5953 29.9762 18.9596 31.1973C19.0662 31.5544 16.3978 33.1441 16.0495 32.8706C15.647 32.5545 14.9062 29.1799 15.432 28.348Z" fill="#4CBA3C"/>
<path fill-rule="evenodd" clip-rule="evenodd" d="M16.4116 20.3082C16.5757 19.5947 17.3402 18.2502 20.0704 18.2828C21.4506 18.2771 23.1651 18.2823 24.3018 18.1532C25.9912 17.9613 27.2453 17.5528 28.0809 17.2343C29.2627 16.7836 29.6821 16.8841 29.8292 17.1538C29.9907 17.4502 29.8003 17.9619 29.3874 18.433C28.5986 19.3327 27.1806 20.03 24.6762 20.2369C22.1719 20.4438 20.5127 19.7722 19.7985 20.8657C19.4905 21.3373 19.7287 22.4487 22.1506 22.7987C25.4233 23.2709 28.1111 22.2298 28.4432 22.8586C28.7753 23.4874 26.8622 24.7668 23.5842 24.7935C20.3062 24.8203 18.2587 23.6462 17.5326 23.0625C16.6114 22.322 16.1992 21.2421 16.4116 20.3082Z" fill="#FFCC33"/>
<g opacity="0.8">
<path d="M20.5894 12.5065C20.7722 12.2072 21.1777 11.9762 21.8412 11.9762C22.5047 11.9762 22.8169 12.2402 23.033 12.5345C23.0769 12.5944 23.0103 12.6649 22.9421 12.6354C22.9257 12.6283 22.9091 12.621 22.8923 12.6137C22.6496 12.5077 22.3516 12.3776 21.8412 12.3704C21.2952 12.3626 20.951 12.4993 20.7342 12.6171C20.6612 12.6568 20.546 12.5775 20.5894 12.5065Z" fill="#14307E"/>
<path d="M13.1191 12.8895C13.7634 12.6203 14.2698 12.6551 14.6278 12.7398C14.7031 12.7576 14.7555 12.6765 14.6952 12.6279C14.4174 12.4038 13.7955 12.1257 12.9845 12.428C12.261 12.6977 11.92 13.2581 11.918 13.6265C11.9175 13.7133 12.0962 13.7207 12.1424 13.6472C12.2672 13.4486 12.4748 13.1587 13.1191 12.8895Z" fill="#14307E"/>
<path fill-rule="evenodd" clip-rule="evenodd" d="M22.4048 16.6013C21.8352 16.6013 21.3732 16.1406 21.3732 15.5737C21.3732 15.0068 21.8352 14.5461 22.4048 14.5461C22.9744 14.5461 23.4364 15.0068 23.4364 15.5737C23.4364 16.1406 22.9744 16.6013 22.4048 16.6013ZM23.1314 15.2333C23.1314 15.0865 23.0111 14.9675 22.8643 14.9675C22.7174 14.9675 22.5985 15.0865 22.5972 15.2333C22.5972 15.3801 22.7174 15.499 22.8643 15.499C23.0124 15.499 23.1314 15.3801 23.1314 15.2333Z" fill="#14307E"/>
<path fill-rule="evenodd" clip-rule="evenodd" d="M15.5697 16.2849C15.5697 16.9467 15.0318 17.4832 14.3672 17.4832C13.704 17.4832 13.1647 16.9467 13.1647 16.2849C13.1647 15.623 13.704 15.0865 14.3672 15.0865C15.0305 15.0865 15.5697 15.623 15.5697 16.2849ZM15.2153 15.8875C15.2153 15.7167 15.0761 15.5775 14.9039 15.5775C14.7331 15.5775 14.5938 15.7154 14.5926 15.8875C14.5926 16.0583 14.7318 16.1975 14.9039 16.1975C15.0761 16.1975 15.2153 16.0583 15.2153 15.8875Z" fill="#14307E"/>
</g>
<path fill-rule="evenodd" clip-rule="evenodd" d="M19.0034 34.7291C27.6938 34.7291 34.7388 27.6861 34.7388 18.998C34.7388 10.3099 27.6938 3.26678 19.0034 3.26678C10.3129 3.26678 3.26797 10.3099 3.26797 18.998C3.26797 27.6861 10.3129 34.7291 19.0034 34.7291ZM36.4247 18.998C36.4247 28.6169 28.6249 36.4146 19.0034 36.4146C9.38183 36.4146 1.58203 28.6169 1.58203 18.998C1.58203 9.37901 9.38183 1.5813 19.0034 1.5813C28.6249 1.5813 36.4247 9.37901 36.4247 18.998Z" fill="white"/>
<path d="M137.094 25.2988C136.866 25.2988 136.672 25.3814 136.511 25.5466C136.353 25.7082 136.274 25.8999 136.274 26.1217C136.274 26.3515 136.354 26.5468 136.515 26.7075C136.675 26.8682 136.868 26.9486 137.094 26.9486C137.32 26.9486 137.512 26.8678 137.672 26.7061C137.832 26.5436 137.912 26.3488 137.912 26.1217C137.912 25.9008 137.833 25.7091 137.674 25.5466C137.513 25.3814 137.32 25.2988 137.094 25.2988ZM138.087 26.1217C138.087 26.4036 137.988 26.6411 137.789 26.8341C137.596 27.0208 137.365 27.1142 137.094 27.1142C136.815 27.1142 136.58 27.0186 136.388 26.8274C136.197 26.6361 136.102 26.4009 136.102 26.1217C136.102 25.8317 136.205 25.5906 136.411 25.3985C136.605 25.2189 136.833 25.1292 137.094 25.1292C137.368 25.1292 137.602 25.2261 137.796 25.42C137.99 25.614 138.087 25.8478 138.087 26.1217ZM137.274 25.9156C137.274 25.8555 137.244 25.8137 137.185 25.7904C137.145 25.7751 137.089 25.7675 137.018 25.7675H136.948V26.0867H137.059C137.127 26.0867 137.179 26.0732 137.217 26.0463C137.255 26.0193 137.274 25.9758 137.274 25.9156ZM136.659 26.6738V25.5736C136.728 25.5736 136.829 25.574 136.965 25.5749C137.102 25.5749 137.177 25.5754 137.193 25.5763C137.28 25.5825 137.352 25.6014 137.41 25.6328C137.507 25.6867 137.556 25.7742 137.556 25.8954C137.556 25.9879 137.53 26.0548 137.478 26.0961C137.427 26.1374 137.364 26.1621 137.288 26.1702C137.357 26.1845 137.41 26.2056 137.445 26.2335C137.509 26.2855 137.542 26.3677 137.542 26.4799V26.5782C137.542 26.589 137.542 26.5998 137.543 26.6105C137.545 26.6213 137.547 26.6321 137.551 26.6429L137.56 26.6738H137.286C137.277 26.6388 137.271 26.5881 137.268 26.5216C137.265 26.4552 137.26 26.4103 137.251 26.387C137.236 26.3484 137.209 26.3214 137.17 26.3062C137.148 26.2972 137.115 26.2914 137.071 26.2887L137.008 26.2846H136.948V26.6738H136.659Z" fill="#333333"/>
</svg>
