<svg width="20" height="20" viewBox="0 0 20 20" fill="none" xmlns="http://www.w3.org/2000/svg">
<path fill-rule="evenodd" clip-rule="evenodd" d="M17.5 10C17.5 14.1421 14.1421 17.5 10 17.5C5.85786 17.5 2.5 14.1421 2.5 10C2.5 5.85786 5.85786 2.5 10 2.5C14.1421 2.5 17.5 5.85786 17.5 10ZM10 19C14.9706 19 19 14.9706 19 10C19 5.02944 14.9706 1 10 1C5.02944 1 1 5.02944 1 10C1 14.9706 5.02944 19 10 19ZM10.5444 5.09094C9.70615 5.09094 9.19661 5.76485 9.19661 6.38944C9.19661 7.14553 9.7719 7.39208 10.2814 7.39208C11.2183 7.39208 11.6128 6.6853 11.6128 6.11002C11.6128 5.3868 11.0375 5.09094 10.5444 5.09094ZM8.97008 8.69335L11.029 8.36047C11.029 8.36047 10.5295 11.2462 10.375 12.2506C10.2205 13.2551 10.4282 13.6818 11.3737 13.5447C11.3294 14.1932 11.1342 14.9091 9.99369 14.9091C8.99502 14.9091 8.36353 14.3328 8.36353 13.2769C8.36353 12.2134 8.54658 11.1957 8.72432 10.2076L8.72432 10.2076L8.72432 10.2076L8.72433 10.2076C8.81641 9.69563 8.90706 9.19164 8.97008 8.69335Z" fill="#C9CAD5"/>
</svg>
