<svg width="128" height="96" viewBox="0 0 128 96" fill="none" xmlns="http://www.w3.org/2000/svg">
<g opacity="0.2">
<path d="M15.9428 33.8L18.2571 33.2C18.6857 33.1143 19.1143 32.6857 19.2 32.2571L19.8 29.9429C19.9714 29.3429 20.4857 29 21 29C21.6 29 22.1143 29.4286 22.2 29.9429L22.8 32.2571C22.8857 32.6857 23.3143 33.1143 23.7429 33.2L26.0572 33.8C26.6572 33.9714 27 34.4857 27 35C27 35.6 26.5714 36.1143 26.0572 36.2L23.7429 36.8C23.3143 36.8857 22.8857 37.3143 22.8 37.7429L22.2 40.0571C22.0286 40.6571 21.5143 41 21 41C20.4 41 19.8857 40.5714 19.8 40.0571L19.2 37.7429C19.1143 37.3143 18.6857 36.8857 18.2571 36.8L15.9428 36.2C15.3428 36.0286 15 35.5143 15 35C15 34.4 15.4285 33.8857 15.9428 33.8Z" fill="#888888"/>
<path d="M105.629 40.2L107.171 39.8C107.457 39.7429 107.743 39.4571 107.8 39.1714L108.2 37.6286C108.314 37.2286 108.657 37 109 37C109.4 37 109.743 37.2857 109.8 37.6286L110.2 39.1714C110.257 39.4571 110.543 39.7429 110.829 39.8L112.371 40.2C112.771 40.3143 113 40.6571 113 41C113 41.4 112.714 41.7429 112.371 41.8L110.829 42.2C110.543 42.2571 110.257 42.5429 110.2 42.8286L109.8 44.3714C109.686 44.7714 109.343 45 109 45C108.6 45 108.257 44.7143 108.2 44.3714L107.8 42.8286C107.743 42.5429 107.457 42.2571 107.171 42.2L105.629 41.8C105.229 41.6857 105 41.3429 105 41C105 40.6 105.286 40.2571 105.629 40.2Z" fill="#888888"/>
<path d="M2.17142 54.8L0.628557 55.2C0.2857 55.2571 0 55.6 0 56C0 56.3429 0.228557 56.6857 0.628557 56.8L2.17142 57.2C2.45714 57.2571 2.74287 57.5429 2.80001 57.8286L3.19999 59.3714C3.25713 59.7143 3.6 60 4 60C4.34286 60 4.68573 59.7714 4.80001 59.3714L5.19999 57.8286C5.25713 57.5429 5.54286 57.2571 5.82858 57.2L7.37144 56.8C7.7143 56.7429 8 56.4 8 56C8 55.6571 7.77144 55.3143 7.37144 55.2L5.82858 54.8C5.54286 54.7429 5.25713 54.4571 5.19999 54.1714L4.80001 52.6286C4.74287 52.2857 4.4 52 4 52C3.65714 52 3.31427 52.2286 3.19999 52.6286L2.80001 54.1714C2.74287 54.4571 2.45714 54.7429 2.17142 54.8Z" fill="#888888"/>
<path d="M126.5 54C125.675 54 125 53.325 125 52.5C125 51.675 125.675 51 126.5 51C127.325 51 128 51.675 128 52.5C128 53.325 127.325 54 126.5 54Z" fill="#888888"/>
<path d="M21 70C21 71.1 21.9 72 23 72C24.1 72 25 71.1 25 70C25 68.9 24.1 68 23 68C21.9 68 21 68.9 21 70Z" fill="#888888"/>
</g>
<path d="M40 27C40 24.7909 41.7909 23 44 23H84C86.2091 23 88 24.7909 88 27V69C88 71.2091 86.2091 73 84 73H44C41.7909 73 40 71.2091 40 69V27Z" fill="#CCCCCC"/>
<path fill-rule="evenodd" clip-rule="evenodd" d="M44 18H84C88.9706 18 93 22.0294 93 27V69C93 73.9706 88.9706 78 84 78H44C39.0294 78 35 73.9706 35 69V27C35 22.0294 39.0294 18 44 18ZM44 23C41.7909 23 40 24.7909 40 27V69C40 71.2091 41.7909 73 44 73H84C86.2091 73 88 71.2091 88 69V27C88 24.7909 86.2091 23 84 23H44Z" fill="#CCCCCC"/>
<path d="M88 46H40V27.1818C40 24.8818 41.8783 23 44.1739 23H83.8261C86.1217 23 88 24.8818 88 27.1818V46Z" fill="#F2F2F2"/>
<path d="M40 50H88V68.8182C88 71.1182 86.1217 73 83.8261 73H44.1739C41.8783 73 40 71.1182 40 68.8182V50Z" fill="white"/>
<path d="M71.9835 50H79.992C79.728 58.329 72.893 65 64.4999 65C56.1068 65 49.2718 58.329 49.0078 50H57.0163C57.2736 53.909 60.5258 57 64.4999 57C68.474 57 71.7262 53.909 71.9835 50Z" fill="#977DE3"/>
<path d="M49.0079 50C49.0027 49.834 49 49.6673 49 49.5V45.5C49 36.9396 55.9396 30 64.5 30C73.0604 30 80 36.9396 80 45.5V49.5C80 49.6673 79.9973 49.834 79.9921 50H71.9836C71.9945 49.8347 72 49.668 72 49.5V45.5C72 41.3579 68.6421 38 64.5 38C60.3579 38 57 41.3579 57 45.5V49.5C57 49.668 57.0055 49.8347 57.0164 50H49.0079Z" fill="#7455D1"/>
<path d="M90 92C101.046 92 110 83.0457 110 72C110 60.9543 101.046 52 90 52C78.9543 52 70 60.9543 70 72C70 83.0457 78.9543 92 90 92Z" fill="#21C000"/>
<path fill-rule="evenodd" clip-rule="evenodd" d="M99.9142 65.5858C100.695 66.3668 100.695 67.6332 99.9142 68.4142L87.9142 80.4142C87.1332 81.1953 85.8668 81.1953 85.0858 80.4142L80.0858 75.4142C79.3047 74.6332 79.3047 73.3668 80.0858 72.5858C80.8668 71.8047 82.1332 71.8047 82.9142 72.5858L86.5 76.1716L97.0858 65.5858C97.8668 64.8047 99.1332 64.8047 99.9142 65.5858Z" fill="white"/>
</svg>
