<svg width="65" height="65" viewBox="0 0 65 65" fill="none" xmlns="http://www.w3.org/2000/svg">
<path d="M4.6668 20.9632V8.95319L16.645 9.2391L26.9711 2.09033L37.7102 9.65214L49.2754 8.95319V20.9632C49.2754 47.5568 26.971 51.3695 26.971 51.3695C26.971 51.3695 4.6668 47.5568 4.6668 20.9632Z" fill="white"/>
<path d="M34.2628 49.2723C43.0364 44.7686 48.8464 31.7097 48.8464 21.392V9.38196L37.7101 9.65198L26.971 2.5191V52.2748L34.2628 49.2723Z" fill="#F2F2F2"/>
<path fill-rule="evenodd" clip-rule="evenodd" d="M26.9632 0.74642C25.2133 0.742113 23.4858 1.40098 22.2507 2.64527C20.0147 4.89776 18.0373 6.1387 16.0051 6.78814C13.966 7.4398 11.5282 7.60516 8.16493 7.18118C6.43962 6.96369 4.65586 7.40091 3.26613 8.44638C1.86571 9.4999 0.968826 11.1057 0.953632 12.8896C0.847466 25.3542 2.66706 33.4155 6.54921 39.2209C10.6483 45.3507 16.754 48.4448 23.1005 51.6609L23.3232 51.7737L23.4706 51.8484L23.4721 51.8492L23.4747 51.8505L23.4774 51.8519L23.4817 51.8541L23.8919 52.062C23.8919 52.062 23.8918 52.062 23.8919 52.062C25.8056 53.0324 28.1363 53.0325 30.0501 52.062L30.4615 51.8534L30.4625 51.8529L30.4662 51.8511L30.4676 51.8503L30.4708 51.8487L30.4723 51.848L30.6186 51.7738L30.8414 51.6609C37.1879 48.4448 43.2936 45.3507 47.3928 39.2209C51.275 33.4154 53.0946 25.3538 52.9883 12.8888C52.9731 11.1034 52.0748 9.49656 50.6726 8.44312C49.2811 7.39774 47.4955 6.96168 45.7691 7.18135C42.4279 7.60649 39.9978 7.46753 37.959 6.83535C35.9212 6.20349 33.9247 4.97143 31.6656 2.66957C30.4374 1.41814 28.7131 0.750727 26.9632 0.74642ZM25.1821 5.55514C25.5775 5.15683 26.2165 4.87503 26.9531 4.87684C27.6897 4.87866 28.3259 5.16355 28.7177 5.56272C31.3315 8.22598 33.8942 9.89939 36.7357 10.7805C39.5327 11.6478 42.6059 11.7476 46.2904 11.2788C47.0112 11.187 47.7069 11.3813 48.1917 11.7455C48.6657 12.1016 48.8548 12.5456 48.8581 12.924C48.9616 25.0663 47.1622 32.1353 43.9593 36.9248C40.5116 42.0805 35.3521 44.744 28.7516 48.0894C28.7515 48.0894 28.7516 48.0894 28.7516 48.0894L28.6052 48.1636L28.6039 48.1643L28.5957 48.1684L28.5939 48.1694L28.5906 48.171L28.5892 48.1717L28.1822 48.378C27.4426 48.7531 26.4995 48.7532 25.76 48.3782L25.3562 48.1735L25.3536 48.1722L25.3492 48.1699L25.3484 48.1695L25.3415 48.166L25.1905 48.0895C18.59 44.7441 13.4304 42.0805 9.98268 36.9248C6.77987 32.1354 4.9805 25.0666 5.08392 12.9248C5.08714 12.5468 5.27599 12.1031 5.74922 11.7471C6.23313 11.3831 6.92796 11.1884 7.64833 11.2792C11.3789 11.7495 14.4657 11.6163 17.2625 10.7226C20.0815 9.82164 22.6082 8.14812 25.1821 5.55514Z" fill="#CACACA"/>
<path fill-rule="evenodd" clip-rule="evenodd" d="M48.5 64C57.6127 64 65 56.6127 65 47.5C65 38.3873 57.6127 31 48.5 31C39.3873 31 32 38.3873 32 47.5C32 56.6127 39.3873 64 48.5 64Z" fill="#999999"/>
<path d="M50.3867 44.4944L46.612 45.1047C46.4965 46.0182 46.3303 46.9422 46.1615 47.8808C45.8356 49.6923 45.5 51.5581 45.5 53.5078C45.5 55.4437 46.6577 56.5002 48.4886 56.5002C50.5797 56.5002 50.9375 55.1877 51.0186 53.9988C49.2852 54.2502 48.9044 53.4678 49.1877 51.6263C49.471 49.7848 50.3867 44.4944 50.3867 44.4944Z" fill="white"/>
<path d="M47.0273 40.8808C47.0273 39.7357 47.9615 38.5002 49.4983 38.5002C50.4023 38.5002 51.457 39.0427 51.457 40.3685C51.457 41.4232 50.7338 42.719 49.0162 42.719C48.082 42.719 47.0273 42.267 47.0273 40.8808Z" fill="white"/>
</svg>
